<?xml version="1.0" standalone="no"?>
<!DOCTYPE svg PUBLIC "-//W3C//DTD SVG 20010904//EN"
 "http://www.w3.org/TR/2001/REC-SVG-20010904/DTD/svg10.dtd">
<svg version="1.0" xmlns="http://www.w3.org/2000/svg"
 width="225.000000pt" height="225.000000pt" viewBox="0 0 225.000000 225.000000"
 preserveAspectRatio="xMidYMid meet">

<g transform="translate(0.000000,225.000000) scale(0.100000,-0.100000)"
fill="#000000" stroke="none">
<path d="M999 2074 c-20 -8 -42 -26 -49 -40 -9 -16 -22 -24 -40 -24 -46 0
-181 -39 -226 -65 -48 -28 -79 -73 -89 -127 -5 -27 -12 -38 -25 -38 -28 0 -68
-45 -76 -84 -3 -20 -4 -62 -2 -93 4 -48 10 -61 37 -85 17 -15 38 -28 45 -28 8
0 18 -14 21 -32 19 -86 99 -143 246 -175 l80 -17 -69 -32 c-38 -17 -72 -37
-76 -43 -4 -6 -21 -11 -37 -11 -116 0 -232 -151 -294 -380 -43 -162 -28 -241
52 -269 36 -13 43 -12 79 5 48 23 78 74 93 158 25 131 21 128 45 45 32 -109
73 -185 136 -250 230 -236 579 -127 691 215 l23 69 16 -74 c20 -93 44 -137 92
-161 75 -39 148 10 156 105 9 107 -72 339 -156 443 -40 51 -108 94 -149 94
-11 0 -32 9 -47 21 -14 11 -51 31 -82 43 l-57 23 74 17 c143 32 217 83 239
166 6 23 17 40 25 40 8 0 29 13 47 29 30 27 33 34 36 102 4 91 -16 139 -64
153 -25 8 -33 17 -42 53 -24 90 -106 146 -254 174 -49 9 -68 18 -86 40 -13 16
-40 33 -60 39 -56 15 -211 12 -253 -6z m265 -18 c71 -30 51 -35 -129 -35 -96
0 -175 2 -175 4 0 11 55 39 88 46 51 11 175 2 216 -15z m130 -71 c109 -23 177
-55 212 -101 l29 -37 3 -193 c3 -166 1 -199 -14 -229 -47 -100 -210 -148 -499
-149 -281 0 -451 49 -500 144 -21 42 -22 398 0 439 33 66 121 110 255 130 41
6 86 13 100 15 55 10 338 -3 414 -19z m-804 -345 c0 -143 -6 -155 -55 -105
-22 21 -25 33 -25 100 0 71 2 79 29 106 16 16 34 29 40 29 7 0 11 -44 11 -130z
m1121 101 c27 -27 29 -35 29 -106 0 -67 -3 -79 -25 -100 -49 -50 -55 -38 -55
105 0 86 4 130 11 130 6 0 24 -13 40 -29z m-406 -502 c-9 -47 -18 -59 -63 -81
-112 -55 -282 -7 -282 79 l0 23 174 0 c172 0 175 0 171 -21z m-360 -18 c17
-80 155 -125 279 -90 49 14 96 59 96 93 0 33 13 33 87 -4 127 -64 170 -137
160 -278 -17 -261 -114 -445 -275 -524 -60 -30 -75 -33 -157 -33 -81 0 -97 3
-158 32 -119 56 -208 176 -252 338 -22 82 -31 271 -15 319 22 68 74 115 175
158 53 22 52 22 60 -11z m-229 -95 c-30 -44 -40 -102 -34 -194 5 -75 -27 -263
-55 -322 -34 -70 -108 -90 -157 -42 -42 42 -45 89 -15 207 51 196 147 347 241
380 21 7 40 12 42 10 2 -1 -8 -19 -22 -39z m863 20 c72 -38 158 -171 200 -312
48 -163 47 -232 -6 -273 -109 -87 -216 106 -193 350 10 104 1 163 -31 216 -23
36 -14 41 30 19z"/>
<path d="M956 1890 c-150 -19 -247 -56 -282 -107 -17 -24 -19 -47 -19 -180 0
-138 2 -154 21 -180 29 -39 68 -59 160 -85 69 -19 105 -22 294 -22 228 -1 295
9 399 57 72 34 81 58 81 230 0 124 -3 154 -17 178 -22 37 -97 74 -188 94 -85
18 -354 27 -449 15z m7 -220 c28 -22 44 -74 29 -93 -8 -10 -118 -15 -174 -8
-5 1 -8 15 -8 32 0 71 95 114 153 69z m459 -7 c30 -34 37 -52 29 -76 -6 -16
-20 -19 -91 -20 l-85 -2 -3 33 c-3 25 3 39 27 62 40 40 87 41 123 3z m-234
-195 c-2 -12 -15 -29 -29 -37 -24 -13 -29 -13 -53 2 -14 10 -26 26 -26 37 0
18 7 20 56 20 51 0 55 -2 52 -22z"/>
</g>
</svg>
